# xmcd
#
# Track frame offsets:
#	183
#	15248
#	29433
#	45298
#	57528
#	72088
#	80503
#	93570
#	107073
#	121920
#	137428
#	154408
#	175033
#
# Disc length: 2536 seconds
#
# Revision: 0
# Processed by: cddbd v1.5.2PL0 Copyright (c) Steve Scherf et al.
# Submitted via: audiograbber 1.83.01
#
DISCID=9f09e60d
DTITLE=Nahoda and Vera Bartosová - Country
DYEAR=1994
DGENRE=Bluegrass
TTITLE0=Flirt (I've Got That Old Feeling)
TTITLE1=Viru dej snum (Who Can Blame You)
TTITLE2=Tatovy ruce (Daddy's Hands]
TTITLE3=A ty
TTITLE4=Vale vire
TTITLE5=Soudnej den (My Rock)
TTITLE6=Sipy lasky
TTITLE7=O, Whiskey (Whiskey If You Ware A Woman
TTITLE8=Pohadkovy zivot (Wildflowers)
TTITLE9=Cesty (Last Letter Home)
TTITLE10=Kdyz se rano vkrada (Lot At A Five And Dime)
TTITLE11=O podivne udalosti v jedno parku (Crowd Around The Corner)
TTITLE12=Buhvi proc (Jesus Help Me To Stand)
EXTD=
EXTT0=
EXTT1=
EXTT2=
EXTT3=
EXTT4=
EXTT5=
EXTT6=
EXTT7=
EXTT8=
EXTT9=
EXTT10=
EXTT11=
EXTT12=
PLAYORDER=
